<?xml version="1.0" encoding="UTF-8" standalone="no"?>
<!-- Created with Inkscape (http://www.inkscape.org/) -->

<svg
   width="64"
   height="64"
   viewBox="0 0 16.933333 16.933334"
   version="1.1"
   id="svg5"
   xmlns="http://www.w3.org/2000/svg"
   xmlns:svg="http://www.w3.org/2000/svg">
  <defs
     id="defs2" />
  <g
     id="layer1">
    <path
       id="path2223"
       style="fill:#b3b3b3;fill-rule:evenodd;stroke-width:0.999999"
       d="M 32,0 A 32.000002,32.000002 0 0 0 0,32 32.000002,32.000002 0 0 0 32,64 32.000002,32.000002 0 0 0 64,32 32.000002,32.000002 0 0 0 32,0 Z m 0,4 A 28,28 0 0 1 60,32 28,28 0 0 1 32,60 28,28 0 0 1 4,32 28,28 0 0 1 32,4 Z"
       transform="scale(0.26458334)" />
    <g
       id="g3706"
       transform="translate(4.1680886,3.6023621)">
      <path
         style="fill:none;stroke:#b3b3b3;stroke-width:1.05833;stroke-linecap:butt;stroke-linejoin:miter;stroke-miterlimit:4;stroke-dasharray:none;stroke-opacity:1"
         d="M 0.37417617,9.3544327 4.8643048,4.8643043 0.37417617,0.3741762"
         id="path3067" />
      <path
         style="fill:none;stroke:#b3b3b3;stroke-width:1.05833;stroke-linecap:butt;stroke-linejoin:miter;stroke-miterlimit:4;stroke-dasharray:none;stroke-opacity:1"
         d="M 3.3586763,9.3544332 7.848804,4.8643043 3.3586763,0.37417618"
         id="path3067-8" />
    </g>
  </g>
</svg>
