<?xml version="1.0" encoding="UTF-8" standalone="no"?>
<!-- Created with Inkscape (http://www.inkscape.org/) -->

<svg
   width="64"
   height="64"
   viewBox="0 0 16.933333 16.933334"
   version="1.1"
   id="svg5"
   xmlns="http://www.w3.org/2000/svg"
   xmlns:svg="http://www.w3.org/2000/svg">
  <defs
     id="defs2" />
  <g
     id="layer1">
    <path
       id="path2223"
       style="fill:#b3b3b3;fill-rule:evenodd;stroke-width:0.999999"
       d="M 32,0 A 32.000002,32.000002 0 0 0 0,32 32.000002,32.000002 0 0 0 32,64 32.000002,32.000002 0 0 0 64,32 32.000002,32.000002 0 0 0 32,0 Z m 0,4 A 28,28 0 0 1 60,32 28,28 0 0 1 32,60 28,28 0 0 1 4,32 28,28 0 0 1 32,4 Z"
       transform="scale(0.26458334)" />
    <path
       style="fill:#b3b3b3;stroke:none;stroke-width:1.05833;stroke-linecap:butt;stroke-linejoin:miter;stroke-miterlimit:4;stroke-dasharray:none;stroke-opacity:1"
       d="M 5.6016453,12.956795 11.331688,8.466667 5.6016457,3.9765386 Z"
       id="path3067-8" />
  </g>
</svg>
